<?xml version="1.0" encoding="utf-8"?>
<!-- Generator: Adobe Illustrator 19.0.0, SVG Export Plug-In . SVG Version: 6.00 Build 0)  -->
<svg version="1.1" id="Layer_1" xmlns="http://www.w3.org/2000/svg" xmlns:xlink="http://www.w3.org/1999/xlink" x="0px" y="0px"
	 viewBox="-255 334 100 103" style="enable-background:new -255 334 100 103;" xml:space="preserve">
<path d="M-237.1,383.1c0.4-15.7,12.3-28.7,27.5-30.8l7.6-7.6l-7.1-7.1c-23.5,2-42.1,21.6-42.6,45.5l7.3-7.3L-237.1,383.1z"/>
<path d="M-205.9,416.1c-15.7-0.4-28.7-12.3-30.8-27.5l-7.6-7.6l-7.1,7.1c2,23.5,21.6,42.1,45.5,42.6l-7.3-7.3L-205.9,416.1z"/>
<path d="M-158.4,385l-7.3,7.3l-7.3-7.3c-0.4,15.7-12.3,28.7-27.5,30.8l-7.6,7.6l7.1,7.1C-177.4,428.4-158.9,408.9-158.4,385z"/>
<path d="M-204.1,351.9c15.7,0.4,28.7,12.3,30.8,27.5l7.6,7.6l7.1-7.1c-2-23.5-21.6-42.1-45.5-42.6l7.3,7.3L-204.1,351.9z"/>
</svg>
