<?xml version="1.0" encoding="utf-8"?>
<!-- Generator: Adobe Illustrator 19.0.0, SVG Export Plug-In . SVG Version: 6.00 Build 0)  -->
<svg version="1.1" id="Layer_1" xmlns="http://www.w3.org/2000/svg" xmlns:xlink="http://www.w3.org/1999/xlink" x="0px" y="0px"
	 viewBox="-247 370.9 100 100" style="enable-background:new -247 370.9 100 100;" xml:space="preserve">
<path d="M-153,393.4C-153,393.4-153,393.4-153,393.4c0-0.2-0.1-0.3-0.1-0.4c0,0,0,0,0-0.1c0-0.1-0.1-0.2-0.1-0.4c0,0,0,0,0-0.1
	c0-0.1-0.1-0.1-0.1-0.2c0,0,0-0.1-0.1-0.1c0,0,0-0.1-0.1-0.1c-0.1-0.1-0.1-0.2-0.2-0.3c0,0,0,0,0,0c-0.1-0.1-0.2-0.2-0.3-0.3
	c0,0,0,0-0.1,0c-0.1-0.1-0.2-0.1-0.3-0.2c0,0,0,0-0.1,0c-0.1-0.1-0.2-0.1-0.3-0.2c0,0,0,0,0,0l-20.5-9.9l-20.5-9.9
	c-0.8-0.4-1.8-0.4-2.7,0l-20.5,9.9l-20.5,9.9c0,0,0,0,0,0c-0.1,0.1-0.2,0.1-0.3,0.2c0,0,0,0-0.1,0c-0.1,0.1-0.2,0.1-0.3,0.2
	c0,0,0,0-0.1,0.1c-0.1,0.1-0.2,0.2-0.3,0.3c0,0,0,0,0,0c-0.1,0.1-0.1,0.2-0.2,0.3c0,0,0,0.1-0.1,0.1c0,0,0,0.1-0.1,0.1
	c0,0.1-0.1,0.1-0.1,0.2c0,0,0,0.1,0,0.1c-0.1,0.1-0.1,0.2-0.1,0.4c0,0,0,0,0,0.1c0,0.1-0.1,0.2-0.1,0.3c0,0,0,0.1,0,0.1
	c0,0.1,0,0.3,0,0.4c0,0,0,0,0,0v25.2v0.1v25.2c0,1.1,0.6,2.2,1.6,2.7l19.9,11.1c0.2,0.2,0.4,0.3,0.6,0.4l20.5,11.4c0,0,0,0,0,0
	c0.1,0.1,0.2,0.1,0.3,0.2c0,0,0,0,0.1,0c0.1,0,0.2,0.1,0.3,0.1c0,0,0.1,0,0.1,0c0.1,0,0.2,0,0.3,0.1c0,0,0.1,0,0.1,0
	c0.1,0,0.2,0,0.4,0c0.1,0,0.2,0,0.4,0c0,0,0.1,0,0.1,0c0.1,0,0.2,0,0.3-0.1c0,0,0.1,0,0.1,0c0.1,0,0.2-0.1,0.3-0.1c0,0,0,0,0.1,0
	c0.1,0,0.2-0.1,0.3-0.2c0,0,0,0,0,0l20.5-11.4c0.2-0.1,0.4-0.3,0.6-0.4l19.9-11.1c1-0.5,1.6-1.6,1.6-2.7v-25.2v-0.1v-25.2
	c0,0,0,0,0,0C-153,393.7-153,393.5-153,393.4z M-235.1,399.1l14.3,7.9v18.3l-14.3-7.9C-235.1,417.3-235.1,399.1-235.1,399.1z
	 M-217.6,387.4l13.8,6.6l-13.8,7.6l-13.8-7.6L-217.6,387.4z M-176.6,387.4l13.8,6.6l-13.8,7.6l-13.8-7.6L-176.6,387.4z
	 M-197.1,438.4l-14.1-7.8l14.1-7.8l14.1,7.8L-197.1,438.4z M-179.7,425.3l-14.3-7.9v-18.3l14.3,7.9V425.3z M-200.2,417.3l-14.3,7.9
	V407l14.3-7.9V417.3z M-214.5,435.8l14.3,7.9V462l-14.3-7.9V435.8z M-194,443.7l14.3-7.9v18.3L-194,462V443.7z M-173.5,425.3V407
	l14.3-7.9v18.3L-173.5,425.3z M-197.1,377.5l13.4,6.4l-13.4,6.4l-13.4-6.4L-197.1,377.5z M-235.1,424.4l14.3,7.9v18.2l-14.3-7.9
	C-235.1,442.6-235.1,424.4-235.1,424.4z M-173.5,450.5v-18.2l14.3-7.9v18.2L-173.5,450.5z"/>
</svg>
