<?xml version="1.0" encoding="utf-8"?>
<!-- Generator: Adobe Illustrator 19.0.0, SVG Export Plug-In . SVG Version: 6.00 Build 0)  -->
<svg version="1.0" id="Layer_1" xmlns="http://www.w3.org/2000/svg" xmlns:xlink="http://www.w3.org/1999/xlink" x="0px" y="0px"
	 viewBox="-247 360.9 97 92.1" style="enable-background:new -247 360.9 97 92.1;" xml:space="preserve">
<style type="text/css">
	.st0{fill:#FFFFFF;}
</style>
<g>
	<path class="st0" d="M-220.5,384.4l-0.8,1l0.1-0.9l-0.4-0.3l0.6-0.9c0,0,0.5,0.2-0.1,1C-220.9,384.3-220.5,384.4-220.5,384.4z
		 M-156.4,416.2c-4.2,18.8-21,32.9-41.1,32.9c-23.3,0-42.1-18.9-42.1-42.1c0-7.5,1.9-14.5,5.3-20.6c-1.3,2.5-1.8,4.2-1.8,4.2
		s-1,5.9-1,6.5c0,0,1.2-5.7,1.7-5.8c0,0-1.2,5.7-1.2,7.6c0,0-1.1,2.3,0.4,6c0,0,0.3,2.4,1.2,1.3c0,0,0.8,0.4,0.8,2.1
		c0,0,0.1,1.5,2,2.3c0,0,0,1.3,0.6,2.1l0.1,1.4c0,0,0.9,0.3,0.9,1.4c0,0,1.6,1.3,2,2.2c0,0,0.8-2.4,1.6-0.1c0,0-0.4,0.2,0.4,1.1
		c0,0-0.6,1.3,0.3,1.6c0,0-0.6,1.3,0.2,1.5c0,0,0.3,0.6-0.3,1.4c0,0-0.2-1.1-0.8,0c0,0-0.7,0-0.7,1.2c0,0-0.6,0.4,0,0.8
		c0,0-0.1,0.9-0.1,0.9s-0.8,0.7,0.2,1.1c0,0,1,0.5,1.6,2.6c0,0,2.5,5.4,6.7,7.8c0,0,1.6,0.6,2.3,3c0,0,0.6,2.1,2.3,3.4
		c0,0,0.2,0.9,0.2,0.9l0.3,0.6c0,0,1.8,1.3,4,1.5c1.2,0.1,3.7,0,3.7,0s2.6,0.8,0.8-0.2c0,0,1.6,0.1,1.6,0.1s0.5,1,1.1,0
		c0,0,1.5-0.1,2.5-0.8c0,0,0.5,0.2,0.4-1.1c0,0,1.7-0.6,3-0.8l1.2-1.2l2.2-0.6c0.2-0.3,1.1-2,1.2-0.9c0,0,0.3,1.3,0.6-2.3
		c0,0,0-0.5,0.9-0.4c0,0,0.4-0.4,0.8-0.9l0.4-1.6l1.7-0.8c0.2-0.4,0.4-1.1-0.1-1.8c0,0-1.3-0.1-1.3-0.1l-2.9-1.3c0,0-0.9-0.5-2,0
		c0,0-1.5-0.8-2.5,0c0,0,0.5-1.5-1.2-1.2c0,0-1.6-1.9-3.4,0.3c0,0-0.5-0.2-0.5-0.2s3-1.5,0.2-1.4l-1.2,0c0,0,1.6-1.5-0.3-2.3
		c0,0-0.3-1.2-0.3-1.2s-1.8-1.6-3.4-2c0,0-2.6-0.3-2.6-0.3s-2.3-2.8-3.3-2.8c0,0-0.2-1-0.2-1s-0.9-0.7-1.5-0.8c0,0-0.2-0.8-0.2-0.8
		l-1.4-0.1l-0.2,0.3l-0.7,0l-0.7-0.7l-1.6-0.1c0,0,0-1.1-1-1.1l-0.5-0.9l-0.2,0l0,0.7l-1,0.1l-0.3-0.6c0,0,1.8-1.1-0.2-0.6
		c0,0-0.4,0.5-1.1,0.5c0,0-1.7-0.6-1.4,0.9c0,0-0.2,0.5-1,0.8c0,0-1.3-2.9-2.4-1.4c0,0-0.6,0.6-1.6-2c0,0,0.1-2.7,0.1-2.7l0.5-0.4
		l0-0.6l-0.1-0.3l-0.5-0.2l0-0.8c0,0-2.2-0.5-2.2-1.5c0,0,0-1.9,0-1.9s0.4-1.8,1.4-1.3c0,0,1.5-0.9-0.1-1.2c0,0-1.3-1-2,1.7
		c0,0-1.8,0.3-1.7-1.8c0,0-0.3-4,1.2-5.5c0,0,0.7-4.5,3.2-1.9c0,0,1.3,1.4,0.5-0.6c0,0,0-0.9,2.3,1.1c0,0.1,0.4,0.5,0.5-0.1
		c0,0,0.8,1,0.2,2.2c0,0-0.2,2.3,0.5,3c0,0,0.8,0.4,1-5.1c0,0,0.8-2.6,5.9-3.7c0,0,1.8-2.1,1.1-3c0,0,0.2-2.1,2.9-2
		c0,0-0.1-1.9,2.9-2.2c0,0,1.1-1.1,2.4-0.6c0,0-2.1,0.5-1.7,1.3c0,0,0.3,0.8,1.3-0.5c0,0,2.1-0.2,2.1-0.8c0,0,1-0.2,1-0.2l0-1
		l-1,0.9c0,0-2.1,0.3-1.8-1.3c0,0,0.6-0.4-0.4-0.6c0.1,0,1.2-0.1,1.3-0.7c0,0-0.5-0.7-1.9,0c0,0-1.2,0.2-2,0.9
		c0.5-0.5,1.5-1.5,2.2-1.5c0,0,0.4,0.1,0.9-0.6c0,0,1.7,0,1.7,0s1.7,1.2,3.2-0.5c0,0,0.9,0,0.9,0l-1.7,2.4l-0.5,0.1l0,0.5l2.7-0.1
		c0,0-0.9,0.5-0.7,0.8c0,0,0.6,0,1.1-0.6c0,0,0.3,1.7,1.1,0.1c0,0-0.4,0-0.6-1.5c0,0-0.5-0.4-1.2-0.3c0,0,0.8-1.1-0.5-0.2
		c0,0,1.8-1.7,0.5-1.3c0,0-1.4-0.9-0.3-1.8c0,0,0.9-0.8-0.4-0.7c0,0-1-0.7-1.1-1.1c0,0,0.7-0.5,0-1.2c0,0-0.2-1.3-0.2-1.3l-1.4,1
		c0,0-1.6,0.3-0.9-0.9c0,0,1.1-0.4-0.1-0.8c0,0,0.3-0.8-0.6-0.7c0,0-1.2,0-1.2,0s-0.6,0.5-0.8,1.2c0,0-1.1,0.8-1.1,0.8l0.2,0.5
		l-0.6,1.2l-2,0.7l-0.5,1.3l-1.1,1h-0.3l0-1.5l1.1-1.1l-0.8-0.1l-0.7-1.7l-0.4,0.2l0.5-1.3c0,0,1.7-2,4.3-1.8c0,0,2-2.8,0.6,0.1
		c0,0,0.6-0.6,1.1-0.2c0,0,1,0.5,0.4-0.3c0,0-0.3-1.4,1.5-1.2c0,0,0.5-0.1,0.4-0.5c0,0,1.9-0.8-0.2-0.5c0,0-1.4,0.8-1.4,0.8l1.8-2.4
		l-3.3,1.9c0,0-2.4,0.2-0.4-0.5c0,0,5.1-2.5,1.6-1.7c0,0-6.6,2.4-6.6,2.4c-6.1,3.3-10.2,7.1-13.1,10.6c7.7-9.7,19.6-15.8,32.9-15.8
		c8.2,0,15.8,2.3,22.3,6.4c0,0-0.1,0-0.1,0l-0.3,0.5l-1.5-1.3l-0.5,0.5l2.3,1.7v-0.6c0,0,0.9,0.1,0.7,1c0,0,1,0.5,1,0.5h0.7v0.4
		h-0.4l1.5,1.4v0.3h-0.6l-0.2,0.5l-0.4,0.2l-1.2-0.7l-0.2,0.1l1.1,1.1c0,0-0.8,0.1-0.2,0.7c0,0,0.5,1.2,0.1,2.5c0,0-0.7,0-0.7,0
		l0.4,0.6l-1,0.2c0,0-0.8,1.2,1.4,0.9c0,0,2.4,1.1,2.2,2.7c0,0-0.2,0.8-2.7,0.6c0,0-1.2,0.1,1.1,2.4c0,0-0.3,2.2,0.8,2.3
		c0,0-0.3,1.5,1,0.7c0,0,0.7,0,0.7,0s0.4,1.8,1,0c0,0,2.3-1,0.4-2.7l0.2-1.7c0,0,0.5-0.8-0.4-1.5c0,0-0.6-0.9,0.7-0.3
		c0,0,0.3-1.2,0.3-1.2s2.9,1.8,4.2,3.1c0,0,0.3,0.7-0.3,0.8c0,0-0.7,0.4,0.8,0.9c0-0.1,0.2-0.6-0.2-1.8c0,0-0.8-1-0.8-1
		s-3.3-2.6-3.4-3.3c0,0,3.5,1.9,5.3,4.9c0,0,0.4,0,0.4,0s-1.6-2.1-1.6-2.6c0,0,0.1-0.2,0.1-0.2l1.6,2.1l-0.1-1
		c1.1,1.7,2.1,3.6,2.9,5.5c-0.2-0.4-0.3-0.7-0.5-1.1c0,0-0.2,0.8-0.2,0.8c0,0-0.5,0-0.5,0l-0.3-0.4c0,0-0.2,0.4,0.6,2.3
		c0,0-0.9,0.4-1.3-0.8c0,0-0.5-0.2-0.8,0.2c0,0-0.5-0.4-0.5-0.4h-0.5l-0.1-1.2l-0.7-0.7v-0.5l-0.6-0.1l-0.8,0.7l-0.1,0.4l-1.5,0.8
		v1.5l-0.6,0.6l-0.6-0.4l-0.9,0l-0.6-0.5v2.1c0,0-1.2,1-0.5,2.1c0,0-0.3,0.9,0.4,1.6c0,0,0,1.7-1.4,2.6c0,0-0.1,1.3-0.1,1.3
		l-0.5,0.4v1.7l-0.5,0.9v1.7c0,0-1.2,1.1,0.6,1.8c0,0-0.7,1.4,0.3,1.5l-0.1,3c0,0-1.6,0.9,0,1.8c0,0,0.1,1.5,0.1,1.5
		s0.4,0.6,0.8,0.2c0,0,0.1,0.9,1.1,1.3l4.7,1.7l3.9-0.1l1.7-1.8l1.7-0.8L-156.4,416.2z M-203.9,370.8c0,0-0.4-0.5-0.4-0.5h-0.5
		l-0.7-0.8l0.2-0.5l0.1-0.4l0.2-0.3h-2.2c0,0-0.8,0.7-1.4,0.8c0,0-0.3,0.5,2.1,0.4v0.8c0,0-3.5,0.4,0.2,0.3c0,0-1.4,1-1.4,1
		s-4.1,0.4-0.2,0.4c0,0-0.3,1.3,0.4,1c0,0,1.1,0.5,1.1,0.5l0.2-0.2l-0.5-0.6l0.4,0c0,0,1.1,1.4,0.8,0.3c0,0,0.8-0.5-0.1-1.1
		c0,0,0.2-1.5,1,0c0,0,0.2,0.6,0.4-0.3C-204.4,371.5-202.2,371.3-203.9,370.8z M-225,409c-0.3-0.8-1.3-0.7-1.3-0.7
		C-225.2,410-225,409-225,409z M-223.6,407.1l-1.8-2.2c0,0-1.7-1.8-2.3-1.9h-1.5c0,0-0.8,0.2,0,0.8c0,0,1.5-1.1,1.4,0.1
		c0,0,1.6,1.2,1.6,1.2l0.2,0.8l0.8,0.4v0.4l-0.7,0.4h1.5C-224.5,407.1-222.8,407.8-223.6,407.1z M-219.9,409.4
		c-0.9-1.6-2.1-1.2-2-1.2c-1.5-1-0.8-0.1-0.9-0.1c0.7,0.4,0.6,1.2,0.6,1.2c-0.7,0-1.5-0.3-1.5-0.3c0.3,1,1.6,0.5,1.6,0.5l0.5,0.8
		l0.3-0.6l1.5,0.2c0.5,0.6,0.7,0.1,0.7,0.1C-219,409.2-219.9,409.4-219.9,409.4z M-191.8,368.9c0,0,0.7-1.7-0.7-1.2c0,0-1.2-1-1.2-1
		l0-0.4h-0.7l-0.2,0.3l-0.5-0.4l-2.1,0.1c0,0-1.9-0.2-4.4,0.6c0,0-1.8-0.3,1.3,1.2c0,0,0.1,0.5-0.2,1c0,0-0.2,0.3,0.8,0.1
		c0,0,0,1.2,0,1.2s-2.1,0.3-0.7,1.7c0,0,0.8,2.4,2.1,2c0,0,1,2.2,1.6-0.1c0,0-0.5-2.3,2.8-2.7c0,0,0.6-0.4,1.3-1.3
		c0,0,1.5-0.1,1.5-0.1S-190.9,369-191.8,368.9z M-177.7,372.2c0,0,0.1,0.4,0.1,0.4l-0.9-0.4c0,0-0.4,0.6,1.4,1c0,0,1.2,1,1.2,1
		l0.5,0.8c0,0,1.3,1,0.5-0.5c0,0-0.5-0.8-0.5-0.8l-0.5-0.1l-0.6-0.9l-0.9-0.7C-177.4,371.9-183.8,368.7-177.7,372.2z M-186.4,371.8
		c-0.9-1.9-2.6-0.2-2.6-0.2l-0.7-0.4v0.7c0,0,0.6,0.1,0.6,0.1C-187.2,373.1-186.4,371.8-186.4,371.8z M-175.5,379.4
		c2.3-0.2,0.9-0.7,0.9-0.7c0-1.6-1-1.1-1-1.1s-1.2-0.8-1.2-0.8c-1-0.4-1.6-0.7-1.6-0.7c-0.4-1.8-1.1-0.9-1.1-0.9
		c-0.3,0-0.4-0.7-0.4-0.7c-0.8,0.1-0.2,0.9-0.2,0.9l1.3,1.5c-1.9-0.6-0.6,0.3-0.6,0.3s-0.4,0.4-0.4,0.4c0,0.5,1.2,0.9,1.2,0.9h1.1
		c0,0-0.5-0.8-0.4-0.8c-0.7-0.9,0.4-0.8,0.4-0.8c1.1-0.1,0.6,0.7,0.6,0.7c-1,0,0.4,0.8,0.4,0.8c-1,0.7,0.6,0.4,0.5,0.4
		c1-0.3,0.1,0.2,0.1,0.3C-176.4,380.8-175.5,379.4-175.5,379.4z M-222.2,386.7c0,0,1.3,0.2,1.9-0.7
		C-220.4,386-222.6,385.8-222.2,386.7z M-164.2,382.1l0.4,0v-0.5c0,0,0,0,0.1,0c-0.6-0.8-1.2-1.6-1.9-2.3c-0.1,0-0.5,0.1-0.6,0.1
		C-165.5,379.9-164.2,382.1-164.2,382.1z M-222,382.4C-222,382.4-222,382.4-222,382.4C-222,382.4-222,382.4-222,382.4L-222,382.4z
		 M-224.1,386.2c0.4-0.1,1.2-1.5,1.2-1.5l0.1-0.6c0,0,0.6-0.3,0.6-0.3c1.7-0.7,0.3-0.7,0.3-0.7c-0.8-0.9-0.7,0.4-0.7,0.4
		s-0.7,0.7-0.7,0.7C-224.8,386.1-224.1,386.2-224.1,386.2z M-221,380.8c0,0-1.1,0.2-2.1,0.7c0,0,0.5,0.2,0.5,0.2s0.5-0.5,1.3-0.1
		C-221.3,381.7-219.8,381.2-221,380.8z M-219.6,385.6c0,0,0.1-0.6,0.9,0.2c-0.1,0,1.5-0.8,0.2-0.7c0,0-1.2,0-1.2,0
		S-221,385.7-219.6,385.6z M-221.4,382c0,0-1.2-0.3-0.6,0.4C-222,382.4-220.9,382.4-221.4,382z"/>
</g>
</svg>
