<?xml version="1.0" encoding="utf-8"?>
<!-- Generator: Adobe Illustrator 19.0.0, SVG Export Plug-In . SVG Version: 6.00 Build 0)  -->
<svg version="1.1" id="Layer_1" xmlns="http://www.w3.org/2000/svg" xmlns:xlink="http://www.w3.org/1999/xlink" x="0px" y="0px"
	 viewBox="-234 374.7 74 68.5" style="enable-background:new -234 374.7 74 68.5;" xml:space="preserve">
<path d="M-166.4,428l-0.4-0.8c-1.1-2.5-14.2-6.3-15.2-6.4l-0.8,0.1c-1.6,0.3-3.3,1.8-6.8,4.7c-0.7,0.6-1.6,0.8-2.4,0.3
	c-4.5-2.5-10-7.5-12.7-10.6c-3-3.3-6.5-8.7-8.2-13c-0.3-0.8,0-1.8,0.6-2.4c3.9-3.5,5.6-5.2,5.7-7c0.1-1.1-2.2-14.5-4.6-15.8
	l-0.7-0.5c-1.5-1-3.8-2.4-6.3-1.9c-0.6,0.2-1.2,0.4-1.8,0.7c-1.7,1.1-5.9,4-7.8,7.7c-1.1,2.4-1.7,23.8,14.3,41.8
	c15.8,17.9,35.4,18.7,38.3,18h0.1l0.2-0.1c4-1.4,7.3-5.2,8.6-6.8C-163.9,433.3-165.5,429.9-166.4,428z"/>
</svg>
