<?xml version="1.0" encoding="utf-8"?>
<!-- Generator: Adobe Illustrator 19.0.0, SVG Export Plug-In . SVG Version: 6.00 Build 0)  -->
<svg version="1.1" id="Layer_1" xmlns="http://www.w3.org/2000/svg" xmlns:xlink="http://www.w3.org/1999/xlink" x="0px" y="0px"
	 viewBox="-260 351.2 90 91.8" style="enable-background:new -260 351.2 90 91.8;" xml:space="preserve">
<style type="text/css">
	.st0{fill:none;}
</style>
<path class="st0" d="M-241.6,406.2c-1.7,0-3.1,1.4-3.1,3.1s1.4,3.1,3.1,3.1c1.7,0,3.1-1.4,3.1-3.1S-239.9,406.2-241.6,406.2z"/>
<path class="st0" d="M-254.2,411.1c0,1.7,1.4,3.1,3.1,3.1c1.7,0,3.1-1.4,3.1-3.1s-1.4-3.1-3.1-3.1S-254.2,409.4-254.2,411.1z"/>
<path class="st0" d="M-241.6,374.8c0-1.7-1.4-3.1-3.1-3.1c-1.7,0-3.1,1.4-3.1,3.1s1.4,3.1,3.1,3.1
	C-243,377.9-241.6,376.5-241.6,374.8z"/>
<path class="st0" d="M-244.7,390.1c-1.7,0-3.1,1.4-3.1,3.1s1.4,3.1,3.1,3.1c1.7,0,3.1-1.4,3.1-3.1S-242.9,390.1-244.7,390.1z"/>
<path class="st0" d="M-210.6,362.6c1.7,0,3.1-1.4,3.1-3.1s-1.4-3.1-3.1-3.1c-1.7,0-3.1,1.4-3.1,3.1S-212.3,362.6-210.6,362.6z"/>
<path class="st0" d="M-182.2,374.8c0-1.7-1.4-3.1-3.1-3.1c-1.7,0-3.1,1.4-3.1,3.1s1.4,3.1,3.1,3.1
	C-183.6,377.9-182.2,376.5-182.2,374.8z"/>
<path class="st0" d="M-232.1,362.8c-1.7,0-3.1,1.4-3.1,3.1s1.4,3.1,3.1,3.1c1.7,0,3.1-1.4,3.1-3.1
	C-228.9,364.2-230.3,362.8-232.1,362.8z"/>
<path class="st0" d="M-185.3,396.3c1.7,0,3.1-1.4,3.1-3.1s-1.4-3.1-3.1-3.1c-1.7,0-3.1,1.4-3.1,3.1
	C-188.5,394.9-187.1,396.3-185.3,396.3z"/>
<path class="st0" d="M-188.4,406.2c-1.7,0-3.1,1.4-3.1,3.1s1.4,3.1,3.1,3.1c1.7,0,3.1-1.4,3.1-3.1
	C-185.2,407.6-186.6,406.2-188.4,406.2z"/>
<path class="st0" d="M-219.9,431.6c-1.7,0-3.1,1.4-3.1,3.1s1.4,3.1,3.1,3.1c1.7,0,3.1-1.4,3.1-3.1S-218.2,431.6-219.9,431.6z"/>
<path class="st0" d="M-179,408c-1.7,0-3.1,1.4-3.1,3.1s1.4,3.1,3.1,3.1s3.1-1.4,3.1-3.1C-175.8,409.4-177.2,408-179,408z"/>
<path class="st0" d="M-198.4,425.2c-1.7,0-3.1,1.4-3.1,3.1s1.4,3.1,3.1,3.1c1.7,0,3.1-1.4,3.1-3.1S-196.7,425.2-198.4,425.2z"/>
<path d="M-201.5,414.7v-34.9c0-0.9-0.5-1.6-1.2-1.6h-24.6c-0.6,0-1.2,0.7-1.2,1.6v34.9c0,0.9,0.5,1.6,1.2,1.6h24.6
	C-202.1,416.3-201.5,415.6-201.5,414.7z"/>
<path d="M-219.1,366.4v4.3c-1.3,0.2-2.3,1.4-2.3,2.8c0,1.6,1.3,2.8,2.8,2.8c1.6,0,2.8-1.3,2.8-2.8c0-1.4-1-2.6-2.3-2.8v-4.8
	c0-0.3-0.2-0.5-0.5-0.5h-9.4c-0.3-2-2-3.6-4.1-3.6c-2.3,0-4.1,1.9-4.1,4.1c0,2.3,1.8,4.1,4.1,4.1c2.1,0,3.8-1.6,4.1-3.6H-219.1z
	 M-232.1,369c-1.7,0-3.1-1.4-3.1-3.1s1.4-3.1,3.1-3.1c1.7,0,3.1,1.4,3.1,3.1S-230.3,369-232.1,369z"/>
<path d="M-211.1,363.5v7.2c-1.3,0.2-2.3,1.4-2.3,2.8c0,1.6,1.3,2.8,2.8,2.8c1.6,0,2.8-1.3,2.8-2.8c0-1.4-1-2.6-2.3-2.8v-7.2
	c2-0.3,3.6-2,3.6-4.1c0-2.3-1.8-4.1-4.1-4.1s-4.1,1.9-4.1,4.1C-214.7,361.5-213.1,363.3-211.1,363.5z M-210.6,356.3
	c1.7,0,3.1,1.4,3.1,3.1s-1.4,3.1-3.1,3.1c-1.7,0-3.1-1.4-3.1-3.1C-213.7,357.7-212.3,356.3-210.6,356.3z"/>
<path d="M-198.4,424.2c-2.1,0-3.8,1.6-4.1,3.6h-8.9v-4.3c1.3-0.2,2.3-1.4,2.3-2.8c0-1.6-1.3-2.8-2.9-2.8c-1.6,0-2.8,1.3-2.8,2.8
	c0,1.4,1,2.6,2.3,2.8v4.8c0,0.3,0.2,0.5,0.5,0.5h9.4c0.3,2,2,3.6,4.1,3.6c2.3,0,4.1-1.8,4.1-4.1C-194.3,426-196.1,424.2-198.4,424.2
	z M-198.4,431.4c-1.7,0-3.1-1.4-3.1-3.1s1.4-3.1,3.1-3.1c1.7,0,3.1,1.4,3.1,3.1C-195.3,430-196.7,431.4-198.4,431.4z"/>
<path d="M-219.4,430.7v-7.2c1.3-0.2,2.3-1.4,2.3-2.8c0-1.6-1.3-2.8-2.9-2.8c-1.6,0-2.8,1.3-2.8,2.8c0,1.4,1,2.6,2.3,2.8v7.2
	c-2,0.3-3.6,2-3.6,4.1c0,2.3,1.8,4.1,4.1,4.1s4.1-1.9,4.1-4.1C-215.8,432.7-217.4,430.9-219.4,430.7z M-219.9,437.9
	c-1.7,0-3.1-1.4-3.1-3.1s1.4-3.1,3.1-3.1c1.7,0,3.1,1.4,3.1,3.1C-216.8,436.5-218.2,437.9-219.9,437.9z"/>
<path d="M-196.4,388c1.4,0,2.6-1,2.8-2.3h8c0.3,0,0.5-0.2,0.5-0.5v-6.3h-0.1c2.2-0.1,4-1.9,4-4.1c0-2.3-1.8-4.1-4.1-4.1
	s-4.1,1.9-4.1,4.1s1.8,4,4,4.1h-0.6v5.8h-7.5c-0.2-1.3-1.4-2.3-2.8-2.3c-1.6,0-2.8,1.3-2.8,2.8C-199.2,386.7-198,388-196.4,388z
	 M-188.4,374.8c0-1.7,1.4-3.1,3.1-3.1c1.7,0,3.1,1.4,3.1,3.1s-1.4,3.1-3.1,3.1C-187,377.9-188.4,376.5-188.4,374.8z"/>
<path d="M-178.5,407v-6c0-0.3-0.2-0.5-0.5-0.5h-14.7c-0.3-1.2-1.4-2.1-2.7-2.1c-1.6,0-2.8,1.3-2.8,2.8s1.3,2.8,2.8,2.8
	s2.7-1.1,2.8-2.6h14.1v5.5c-2,0.3-3.6,2-3.6,4.1c0,2.3,1.9,4.1,4.1,4.1s4.1-1.8,4.1-4.1C-174.8,409-176.4,407.3-178.5,407z
	 M-179,414.2c-1.7,0-3.1-1.4-3.1-3.1s1.4-3.1,3.1-3.1s3.1,1.4,3.1,3.1C-175.8,412.8-177.2,414.2-179,414.2z"/>
<path d="M-196.4,396.1c1.4,0,2.6-1,2.8-2.3h4.2c0.3,2,2,3.6,4.1,3.6c2.3,0,4.1-1.8,4.1-4.1s-1.9-4.1-4.1-4.1c-2.1,0-3.8,1.6-4.1,3.6
	h-4.2c-0.2-1.3-1.4-2.3-2.8-2.3c-1.6,0-2.8,1.3-2.8,2.8S-198,396.1-196.4,396.1z M-185.3,390.1c1.7,0,3.1,1.4,3.1,3.1
	s-1.4,3.1-3.1,3.1c-1.7,0-3.1-1.4-3.1-3.1S-187.1,390.1-185.3,390.1z"/>
<path d="M-188.4,405.2c-2.1,0-3.8,1.6-4.1,3.6h-1.2c-0.2-1.3-1.4-2.3-2.8-2.3c-1.6,0-2.8,1.3-2.8,2.8c0,1.6,1.3,2.8,2.8,2.8
	c1.4,0,2.6-1,2.8-2.3h1.2c0.3,2,2,3.6,4.1,3.6c2.3,0,4.1-1.9,4.1-4.1S-186.1,405.2-188.4,405.2z M-188.4,412.4
	c-1.7,0-3.1-1.4-3.1-3.1s1.4-3.1,3.1-3.1c1.7,0,3.1,1.4,3.1,3.1C-185.2,411-186.6,412.4-188.4,412.4z"/>
<path d="M-233.6,382.3c-1.4,0-2.6,1-2.8,2.3h-7.5v-5.8h-0.6c2.2-0.1,4-1.9,4-4.1c0-2.3-1.9-4.1-4.1-4.1s-4.1,1.9-4.1,4.1
	s1.8,4,4,4.1h-0.1v6.3c0,0.3,0.2,0.5,0.5,0.5h8c0.2,1.3,1.4,2.3,2.8,2.3c1.6,0,2.8-1.3,2.8-2.8C-230.8,383.6-232,382.3-233.6,382.3z
	 M-247.8,374.8c0-1.7,1.4-3.1,3.1-3.1c1.7,0,3.1,1.4,3.1,3.1s-1.4,3.1-3.1,3.1C-246.4,377.9-247.8,376.5-247.8,374.8z"/>
<path d="M-233.6,398.4c-1.3,0-2.4,0.9-2.7,2.1H-251c-0.3,0-0.5,0.2-0.5,0.5v6c-2,0.3-3.6,2-3.6,4.1c0,2.3,1.9,4.1,4.1,4.1
	s4.1-1.9,4.1-4.1c0-2.1-1.6-3.8-3.6-4.1v-5.5h14.1c0.1,1.4,1.3,2.6,2.8,2.6c1.6,0,2.8-1.3,2.8-2.8S-232,398.4-233.6,398.4z
	 M-247.9,411.1c0,1.7-1.4,3.1-3.1,3.1c-1.7,0-3.1-1.4-3.1-3.1s1.4-3.1,3.1-3.1C-249.3,408-247.9,409.4-247.9,411.1z"/>
<path d="M-233.6,390.4c-1.4,0-2.6,1-2.8,2.3h-4.2c-0.3-2-2-3.6-4.1-3.6c-2.3,0-4.1,1.9-4.1,4.1c0,2.3,1.9,4.1,4.1,4.1
	c2.1,0,3.8-1.6,4.1-3.6h4.2c0.2,1.3,1.4,2.3,2.8,2.3c1.6,0,2.8-1.3,2.8-2.8S-232,390.4-233.6,390.4z M-244.7,396.3
	c-1.7,0-3.1-1.4-3.1-3.1s1.4-3.1,3.1-3.1c1.7,0,3.1,1.4,3.1,3.1C-241.5,394.9-242.9,396.3-244.7,396.3z"/>
<path d="M-233.6,406.4c-1.4,0-2.6,1-2.8,2.3h-1.2c-0.3-2-2-3.6-4.1-3.6c-2.3,0-4.1,1.9-4.1,4.1c0,2.3,1.8,4.1,4.1,4.1
	c2.1,0,3.8-1.6,4.1-3.6h1.2c0.2,1.3,1.4,2.3,2.8,2.3c1.6,0,2.8-1.3,2.8-2.8S-232,406.4-233.6,406.4z M-241.6,412.4
	c-1.7,0-3.1-1.4-3.1-3.1s1.4-3.1,3.1-3.1c1.7,0,3.1,1.4,3.1,3.1S-239.9,412.4-241.6,412.4z"/>
</svg>
